<mxfile host="app.diagrams.net" agent="Mozilla/5.0 (Windows NT 10.0; Win64; x64) AppleWebKit/537.36 (KHTML, like Gecko) Chrome/130.0.0.0 Safari/537.36 Edg/130.0.0.0" version="24.8.4">
  <diagram name="Page-1" id="Z76u_5p6mXQNEy8YJBog">
    <mxGraphModel dx="1268" dy="670" grid="1" gridSize="10" guides="1" tooltips="1" connect="1" arrows="1" fold="1" page="1" pageScale="1" pageWidth="850" pageHeight="1100" math="0" shadow="0">
      <root>
        <mxCell id="0" />
        <mxCell id="1" parent="0" />
        <mxCell id="JRevb0drHu87jkVgob39-1" value="" style="image;aspect=fixed;perimeter=ellipsePerimeter;html=1;align=center;shadow=0;dashed=0;spacingTop=3;image=img/lib/active_directory/internet_globe.svg;" vertex="1" parent="1">
          <mxGeometry x="230" y="50" width="110" height="110" as="geometry" />
        </mxCell>
        <mxCell id="JRevb0drHu87jkVgob39-2" value="Internet" style="html=1;whiteSpace=wrap;" vertex="1" parent="1">
          <mxGeometry x="230" width="110" height="50" as="geometry" />
        </mxCell>
        <mxCell id="JRevb0drHu87jkVgob39-3" value="" style="image;aspect=fixed;perimeter=ellipsePerimeter;html=1;align=center;shadow=0;dashed=0;spacingTop=3;image=img/lib/active_directory/domain_controller.svg;" vertex="1" parent="1">
          <mxGeometry x="230" y="290" width="77" height="110" as="geometry" />
        </mxCell>
        <mxCell id="JRevb0drHu87jkVgob39-5" value="" style="sketch=0;pointerEvents=1;shadow=0;dashed=0;html=1;strokeColor=none;fillColor=#434445;aspect=fixed;labelPosition=center;verticalLabelPosition=bottom;verticalAlign=top;align=center;outlineConnect=0;shape=mxgraph.vvd.virtual_machine;" vertex="1" parent="1">
          <mxGeometry x="500" y="130" width="90" height="90" as="geometry" />
        </mxCell>
        <mxCell id="JRevb0drHu87jkVgob39-7" value="" style="fontColor=#0066CC;verticalAlign=top;verticalLabelPosition=bottom;labelPosition=center;align=center;html=1;outlineConnect=0;fillColor=#CCCCCC;strokeColor=#6881B3;gradientColor=none;gradientDirection=north;strokeWidth=2;shape=mxgraph.networks.laptop;" vertex="1" parent="1">
          <mxGeometry x="720" y="300" width="100" height="70" as="geometry" />
        </mxCell>
        <mxCell id="JRevb0drHu87jkVgob39-8" value="" style="sketch=0;pointerEvents=1;shadow=0;dashed=0;html=1;strokeColor=none;fillColor=#505050;labelPosition=center;verticalLabelPosition=bottom;verticalAlign=top;outlineConnect=0;align=center;shape=mxgraph.office.devices.nic;" vertex="1" parent="1">
          <mxGeometry x="670" y="300" width="57" height="38" as="geometry" />
        </mxCell>
        <mxCell id="JRevb0drHu87jkVgob39-9" value="NIC&lt;div&gt;(DHCP)&lt;/div&gt;" style="text;html=1;align=center;verticalAlign=middle;whiteSpace=wrap;rounded=0;" vertex="1" parent="1">
          <mxGeometry x="670" y="338" width="60" height="30" as="geometry" />
        </mxCell>
        <mxCell id="JRevb0drHu87jkVgob39-10" value="" style="sketch=0;pointerEvents=1;shadow=0;dashed=0;html=1;strokeColor=none;fillColor=#505050;labelPosition=center;verticalLabelPosition=bottom;verticalAlign=top;outlineConnect=0;align=center;shape=mxgraph.office.devices.nic;" vertex="1" parent="1">
          <mxGeometry x="240" y="250" width="57" height="40" as="geometry" />
        </mxCell>
        <mxCell id="JRevb0drHu87jkVgob39-11" value="NIC&lt;div&gt;(DHCP)&lt;/div&gt;" style="text;html=1;align=center;verticalAlign=middle;whiteSpace=wrap;rounded=0;" vertex="1" parent="1">
          <mxGeometry x="190" y="255" width="60" height="30" as="geometry" />
        </mxCell>
        <mxCell id="JRevb0drHu87jkVgob39-12" value="" style="html=1;outlineConnect=0;fillColor=#CCCCCC;strokeColor=#6881B3;gradientColor=none;gradientDirection=north;strokeWidth=2;shape=mxgraph.networks.comm_link_edge;html=1;rounded=0;entryX=0.5;entryY=1;entryDx=0;entryDy=0;" edge="1" parent="1" target="JRevb0drHu87jkVgob39-1">
          <mxGeometry width="100" height="100" relative="1" as="geometry">
            <mxPoint x="270" y="250" as="sourcePoint" />
            <mxPoint x="370" y="175" as="targetPoint" />
            <Array as="points">
              <mxPoint x="200" y="175" />
            </Array>
          </mxGeometry>
        </mxCell>
        <mxCell id="JRevb0drHu87jkVgob39-13" value="" style="shape=link;html=1;rounded=0;width=-1.0344827586206886;" edge="1" parent="1" target="JRevb0drHu87jkVgob39-5">
          <mxGeometry width="100" relative="1" as="geometry">
            <mxPoint x="350" y="310" as="sourcePoint" />
            <mxPoint x="470" y="260" as="targetPoint" />
            <Array as="points">
              <mxPoint x="370" y="300" />
            </Array>
          </mxGeometry>
        </mxCell>
        <mxCell id="JRevb0drHu87jkVgob39-14" value="" style="shape=link;html=1;rounded=0;width=-1.7241379310344822;" edge="1" parent="1">
          <mxGeometry width="100" relative="1" as="geometry">
            <mxPoint x="680" y="300" as="sourcePoint" />
            <mxPoint x="589.9951612903229" y="220" as="targetPoint" />
          </mxGeometry>
        </mxCell>
        <mxCell id="JRevb0drHu87jkVgob39-16" value="" style="sketch=0;pointerEvents=1;shadow=0;dashed=0;html=1;strokeColor=none;fillColor=#505050;labelPosition=center;verticalLabelPosition=bottom;verticalAlign=top;outlineConnect=0;align=center;shape=mxgraph.office.devices.nic;" vertex="1" parent="1">
          <mxGeometry x="297" y="310" width="57" height="40" as="geometry" />
        </mxCell>
        <mxCell id="JRevb0drHu87jkVgob39-17" value="NIC(Internal)&lt;div&gt;IP:172.16.0.1&lt;/div&gt;&lt;div&gt;Mask :255.255.255.0&lt;/div&gt;&lt;div&gt;gateway;&amp;lt;Empty&amp;gt;&lt;/div&gt;&lt;div&gt;DNS:127.0.0.1&lt;/div&gt;" style="text;html=1;align=center;verticalAlign=middle;whiteSpace=wrap;rounded=0;" vertex="1" parent="1">
          <mxGeometry x="307" y="369" width="123" height="50" as="geometry" />
        </mxCell>
        <mxCell id="JRevb0drHu87jkVgob39-18" value="" style="endArrow=none;html=1;rounded=0;entryX=0.269;entryY=1.009;entryDx=0;entryDy=0;entryPerimeter=0;exitX=0.402;exitY=-0.071;exitDx=0;exitDy=0;exitPerimeter=0;" edge="1" parent="1" source="JRevb0drHu87jkVgob39-24" target="JRevb0drHu87jkVgob39-3">
          <mxGeometry width="50" height="50" relative="1" as="geometry">
            <mxPoint x="250" y="480" as="sourcePoint" />
            <mxPoint x="460" y="380" as="targetPoint" />
          </mxGeometry>
        </mxCell>
        <mxCell id="JRevb0drHu87jkVgob39-19" value="" style="endArrow=none;html=1;rounded=0;" edge="1" parent="1">
          <mxGeometry width="50" height="50" relative="1" as="geometry">
            <mxPoint x="150" y="480" as="sourcePoint" />
            <mxPoint x="360" y="480" as="targetPoint" />
            <Array as="points" />
          </mxGeometry>
        </mxCell>
        <mxCell id="JRevb0drHu87jkVgob39-20" value="" style="endArrow=none;html=1;rounded=0;" edge="1" parent="1">
          <mxGeometry width="50" height="50" relative="1" as="geometry">
            <mxPoint x="361.5" y="480" as="sourcePoint" />
            <mxPoint x="361.5" y="520" as="targetPoint" />
          </mxGeometry>
        </mxCell>
        <mxCell id="JRevb0drHu87jkVgob39-21" value="" style="endArrow=none;html=1;rounded=0;" edge="1" parent="1">
          <mxGeometry width="50" height="50" relative="1" as="geometry">
            <mxPoint x="150" y="480" as="sourcePoint" />
            <mxPoint x="150" y="520" as="targetPoint" />
          </mxGeometry>
        </mxCell>
        <mxCell id="JRevb0drHu87jkVgob39-22" value="VMWare" style="text;html=1;align=center;verticalAlign=middle;whiteSpace=wrap;rounded=0;" vertex="1" parent="1">
          <mxGeometry x="510" y="220" width="60" height="30" as="geometry" />
        </mxCell>
        <mxCell id="JRevb0drHu87jkVgob39-23" value="Domain&lt;div&gt;AD DS&lt;/div&gt;&lt;div&gt;MYDOMAIN.COM&lt;/div&gt;" style="text;html=1;align=center;verticalAlign=middle;whiteSpace=wrap;rounded=0;" vertex="1" parent="1">
          <mxGeometry x="120" y="520" width="60" height="30" as="geometry" />
        </mxCell>
        <mxCell id="JRevb0drHu87jkVgob39-24" value="RAS/NAT&lt;div&gt;Outside :Internet&lt;/div&gt;&lt;div&gt;Inside: Internel&lt;/div&gt;" style="text;html=1;align=center;verticalAlign=middle;whiteSpace=wrap;rounded=0;" vertex="1" parent="1">
          <mxGeometry x="210" y="520" width="100" height="60" as="geometry" />
        </mxCell>
        <mxCell id="JRevb0drHu87jkVgob39-25" value="DHCP (1 Scope)&lt;div&gt;Range:172.16.0.100-200&lt;/div&gt;&lt;div&gt;Mask:255.255.255.0&lt;/div&gt;&lt;div&gt;Gateway:172.168.0.1&lt;/div&gt;&lt;div&gt;DNS:172.16.0.1&lt;/div&gt;" style="text;html=1;align=center;verticalAlign=middle;whiteSpace=wrap;rounded=0;" vertex="1" parent="1">
          <mxGeometry x="307" y="520" width="193" height="80" as="geometry" />
        </mxCell>
      </root>
    </mxGraphModel>
  </diagram>
</mxfile>
